<svg width="945" height="86" viewBox="0 0 945 86" fill="none" xmlns="http://www.w3.org/2000/svg">
<path d="M39.0533 24.9948C41.0293 24.9948 43.3473 25.1088 46.0073 25.3368C48.7433 25.5648 51.4793 25.8688 54.2153 26.2488C57.0273 26.6288 59.5353 27.0468 61.7393 27.5028C64.0193 27.8828 65.6913 28.2628 66.7553 28.6428L48.1733 40.7268C46.2733 40.6508 44.4493 40.6128 42.7013 40.6128C40.9533 40.6128 38.7493 40.6128 36.0893 40.6128C34.8733 40.6128 33.7333 40.7648 32.6693 41.0688C31.6053 41.2968 30.6553 41.8288 29.8193 42.6648C28.9833 43.4248 28.2233 44.6408 27.5393 46.3128C26.8553 47.9088 26.3233 50.0748 25.9433 52.8108C25.4113 56.6868 25.0313 59.6508 24.8033 61.7028C24.6513 63.6788 24.8413 65.0088 25.3733 65.6928C25.9053 66.3768 26.8933 66.6808 28.3373 66.6048C29.7813 66.4528 31.3773 65.6928 33.1253 64.3248C34.8733 62.8808 36.5453 61.0948 38.1413 58.9668C39.7373 56.7628 41.0293 54.4448 42.0173 52.0128L45.8933 58.3968C44.7533 63.9448 42.8913 68.6568 40.3073 72.5328C37.7993 76.3328 34.6833 79.2588 30.9593 81.3108C27.2353 83.3628 22.9413 84.5788 18.0773 84.9588C12.6053 85.3388 8.50127 84.2748 5.76527 81.7668C3.02927 79.2588 1.39527 75.5728 0.863266 70.7088C0.331266 65.8448 0.559266 60.1068 1.54727 53.4948C2.61127 46.7308 4.16927 41.4488 6.22127 37.6488C8.34927 33.7728 10.9713 30.9608 14.0873 29.2128C17.2793 27.3888 20.9653 26.2488 25.1453 25.7928C29.3253 25.2608 33.9613 24.9948 39.0533 24.9948ZM43.3853 26.5908L66.7553 28.6428L59.0033 83.5908H40.5353L40.3073 71.1648L37.2293 69.3408L43.3853 26.5908ZM101.101 26.5908L93.2353 83.5908H69.4093L77.2753 26.5908H101.101ZM97.1113 0.484817C99.6953 0.484817 101.557 1.09282 102.697 2.30881C103.837 3.52482 104.255 5.42482 103.951 8.00881L103.153 13.8228C102.621 18.2308 99.9993 20.4348 95.2873 20.4348H85.9393C80.9233 20.4348 78.6813 17.9268 79.2133 12.9108L80.0113 7.09682C80.4673 2.68882 83.0893 0.484817 87.8773 0.484817H97.1113Z" fill="#71FA30"/>
<path d="M130.252 26.5908L131.392 38.2188L133.558 39.5868L127.63 83.5908H103.576L111.556 26.5908H130.252ZM157.84 24.9948L152.938 46.8828H147.58C145.528 46.8828 143.248 46.9968 140.74 47.2248C138.232 47.4528 134.926 47.9088 130.822 48.5928L129.91 35.2548C134.09 31.6828 138.194 29.0988 142.222 27.5028C146.25 25.8308 150.088 24.9948 153.736 24.9948H157.84ZM163.808 62.5008C166.468 62.5008 168.52 63.2228 169.964 64.6668C171.484 66.1108 172.054 68.2768 171.674 71.1648L170.99 75.8388C170.686 78.4988 169.812 80.4748 168.368 81.7668C166.924 82.9828 164.758 83.5908 161.87 83.5908H157.31C151.382 83.5908 148.76 80.7028 149.444 74.9268L150.014 70.2528C150.774 65.0848 153.852 62.5008 159.248 62.5008H163.808ZM212.7 24.9948C217.108 24.9948 221.668 25.3748 226.38 26.1348C231.092 26.8188 235.234 27.9208 238.806 29.4408L235.614 44.0328C231.358 44.0328 227.558 44.0328 224.214 44.0328C220.87 44.0328 217.982 44.0328 215.55 44.0328C213.27 44.0328 211.446 44.3748 210.078 45.0588C208.786 45.7428 207.798 46.8828 207.114 48.4788C206.43 49.9988 205.898 52.0888 205.518 54.7488C205.062 57.8648 204.948 60.2588 205.176 61.9308C205.48 63.5268 206.202 64.6288 207.342 65.2368C208.558 65.7688 210.306 66.0348 212.586 66.0348C214.106 66.0348 215.892 66.0348 217.944 66.0348C219.996 65.9588 222.2 65.8828 224.556 65.8068C226.988 65.6548 229.382 65.4648 231.738 65.2368L233.448 80.3988C229.724 82.1468 225.62 83.3248 221.136 83.9328C216.728 84.6168 212.472 84.9588 208.368 84.9588C201.68 84.9588 196.056 83.9328 191.496 81.8808C187.012 79.8288 183.82 76.5228 181.92 71.9628C180.02 67.4028 179.564 61.4368 180.552 54.0648C181.54 47.2248 183.174 41.6768 185.454 37.4208C187.734 33.1648 191.04 30.0488 195.372 28.0728C199.78 26.0208 205.556 24.9948 212.7 24.9948ZM290.691 24.9948C296.543 24.9948 300.799 26.4388 303.459 29.3268C306.195 32.1388 307.183 36.1668 306.423 41.4108L300.495 83.5908H276.555L281.571 48.1368C281.799 46.8448 281.761 46.0468 281.457 45.7428C281.153 45.3628 280.469 45.1728 279.405 45.1728C277.581 45.1728 275.757 45.5528 273.933 46.3128C272.109 47.0728 269.753 48.5928 266.865 50.8728L262.875 40.9548C267.815 35.4068 272.679 31.3788 277.467 28.8708C282.255 26.2868 286.663 24.9948 290.691 24.9948ZM274.731 3.79081L272.337 21.2328C271.805 25.3368 270.893 29.2888 269.601 33.0888C268.385 36.8128 267.283 39.7768 266.295 41.9808L269.145 43.0068L263.559 83.5908H239.619L250.791 3.79081H274.731ZM342.349 26.5908L334.483 83.5908H310.657L318.523 26.5908H342.349ZM338.359 0.484817C340.943 0.484817 342.805 1.09282 343.945 2.30881C345.085 3.52482 345.503 5.42482 345.199 8.00881L344.401 13.8228C343.869 18.2308 341.247 20.4348 336.535 20.4348H327.187C322.171 20.4348 319.929 17.9268 320.461 12.9108L321.259 7.09682C321.715 2.68882 324.337 0.484817 329.125 0.484817H338.359ZM376.402 26.5908L371.272 62.0448C371.12 63.2608 371.31 64.0968 371.842 64.5528C372.374 64.9328 373.058 65.1228 373.894 65.1228C375.718 65.1228 377.504 64.7048 379.252 63.8688C381 63.0328 383.28 61.5508 386.092 59.4228L390.196 69.2268C385.18 74.7748 380.43 78.8408 375.946 81.4248C371.462 83.9328 366.94 85.1868 362.38 85.1868C356.452 85.1868 352.12 83.7808 349.384 80.9688C346.724 78.0808 345.774 74.0148 346.534 68.7708L352.348 26.5908H376.402ZM412.654 26.5908L404.788 83.5908H386.092L385.408 68.3148L383.242 66.9468L388.942 26.5908H412.654ZM448.938 24.9948C453.346 24.9948 457.906 25.3748 462.618 26.1348C467.33 26.8188 471.472 27.9208 475.044 29.4408L471.852 44.0328C467.596 44.0328 463.796 44.0328 460.452 44.0328C457.108 44.0328 454.22 44.0328 451.788 44.0328C449.508 44.0328 447.684 44.3748 446.316 45.0588C445.024 45.7428 444.036 46.8828 443.352 48.4788C442.668 49.9988 442.136 52.0888 441.756 54.7488C441.3 57.8648 441.186 60.2588 441.414 61.9308C441.718 63.5268 442.44 64.6288 443.58 65.2368C444.796 65.7688 446.544 66.0348 448.824 66.0348C450.344 66.0348 452.13 66.0348 454.182 66.0348C456.234 65.9588 458.438 65.8828 460.794 65.8068C463.226 65.6548 465.62 65.4648 467.976 65.2368L469.686 80.3988C465.962 82.1468 461.858 83.3248 457.374 83.9328C452.966 84.6168 448.71 84.9588 444.606 84.9588C437.918 84.9588 432.294 83.9328 427.734 81.8808C423.25 79.8288 420.058 76.5228 418.158 71.9628C416.258 67.4028 415.802 61.4368 416.79 54.0648C417.778 47.2248 419.412 41.6768 421.692 37.4208C423.972 33.1648 427.278 30.0488 431.61 28.0728C436.018 26.0208 441.794 24.9948 448.938 24.9948ZM526.93 24.9948C532.782 24.9948 537.038 26.4388 539.698 29.3268C542.434 32.1388 543.422 36.1668 542.662 41.4108L536.734 83.5908H512.794L517.81 48.1368C518.038 46.8448 518 46.0468 517.696 45.7428C517.392 45.3628 516.708 45.1728 515.644 45.1728C513.82 45.1728 511.996 45.5528 510.172 46.3128C508.348 47.0728 505.992 48.5928 503.104 50.8728L499.114 40.9548C504.054 35.4068 508.918 31.3788 513.706 28.8708C518.494 26.2868 522.902 24.9948 526.93 24.9948ZM510.97 3.79081L508.576 21.2328C508.044 25.3368 507.132 29.2888 505.84 33.0888C504.624 36.8128 503.522 39.7768 502.534 41.9808L505.384 43.0068L499.798 83.5908H475.858L487.03 3.79081H510.97ZM586.454 24.9948C588.43 24.9948 590.748 25.1088 593.408 25.3368C596.144 25.5648 598.88 25.8688 601.616 26.2488C604.428 26.6288 606.936 27.0468 609.14 27.5028C611.42 27.8828 613.092 28.2628 614.156 28.6428L595.574 40.7268C593.674 40.6508 591.85 40.6128 590.102 40.6128C588.354 40.6128 586.15 40.6128 583.49 40.6128C582.274 40.6128 581.134 40.7648 580.07 41.0688C579.006 41.2968 578.056 41.8288 577.22 42.6648C576.384 43.4248 575.624 44.6408 574.94 46.3128C574.256 47.9088 573.724 50.0748 573.344 52.8108C572.812 56.6868 572.432 59.6508 572.204 61.7028C572.052 63.6788 572.242 65.0088 572.774 65.6928C573.306 66.3768 574.294 66.6808 575.738 66.6048C577.182 66.4528 578.778 65.6928 580.526 64.3248C582.274 62.8808 583.946 61.0948 585.542 58.9668C587.138 56.7628 588.43 54.4448 589.418 52.0128L593.294 58.3968C592.154 63.9448 590.292 68.6568 587.708 72.5328C585.2 76.3328 582.084 79.2588 578.36 81.3108C574.636 83.3628 570.342 84.5788 565.478 84.9588C560.006 85.3388 555.902 84.2748 553.166 81.7668C550.43 79.2588 548.796 75.5728 548.264 70.7088C547.732 65.8448 547.96 60.1068 548.948 53.4948C550.012 46.7308 551.57 41.4488 553.622 37.6488C555.75 33.7728 558.372 30.9608 561.488 29.2128C564.68 27.3888 568.366 26.2488 572.546 25.7928C576.726 25.2608 581.362 24.9948 586.454 24.9948ZM590.786 26.5908L614.156 28.6428L606.404 83.5908H587.936L587.708 71.1648L584.63 69.3408L590.786 26.5908ZM647.932 26.5908L642.802 62.0448C642.65 63.2608 642.84 64.0968 643.372 64.5528C643.904 64.9328 644.588 65.1228 645.424 65.1228C647.248 65.1228 649.034 64.7048 650.782 63.8688C652.53 63.0328 654.81 61.5508 657.622 59.4228L661.726 69.2268C656.71 74.7748 651.96 78.8408 647.476 81.4248C642.992 83.9328 638.47 85.1868 633.91 85.1868C627.982 85.1868 623.65 83.7808 620.914 80.9688C618.254 78.0808 617.304 74.0148 618.064 68.7708L623.878 26.5908H647.932ZM684.184 26.5908L676.318 83.5908H657.622L656.938 68.3148L654.772 66.9468L660.472 26.5908H684.184ZM700.632 62.5008C703.292 62.5008 705.344 63.2228 706.788 64.6668C708.308 66.1108 708.878 68.2768 708.498 71.1648L707.814 75.8388C707.51 78.4988 706.636 80.4748 705.192 81.7668C703.748 82.9828 701.582 83.5908 698.694 83.5908H694.134C688.206 83.5908 685.584 80.7028 686.268 74.9268L686.838 70.2528C687.598 65.0848 690.676 62.5008 696.072 62.5008H700.632ZM749.524 24.9948C753.932 24.9948 758.492 25.3748 763.204 26.1348C767.916 26.8188 772.058 27.9208 775.63 29.4408L772.438 44.0328C768.182 44.0328 764.382 44.0328 761.038 44.0328C757.694 44.0328 754.806 44.0328 752.374 44.0328C750.094 44.0328 748.27 44.3748 746.902 45.0588C745.61 45.7428 744.622 46.8828 743.938 48.4788C743.254 49.9988 742.722 52.0888 742.342 54.7488C741.886 57.8648 741.772 60.2588 742 61.9308C742.304 63.5268 743.026 64.6288 744.166 65.2368C745.382 65.7688 747.13 66.0348 749.41 66.0348C750.93 66.0348 752.716 66.0348 754.768 66.0348C756.82 65.9588 759.024 65.8828 761.38 65.8068C763.812 65.6548 766.206 65.4648 768.562 65.2368L770.272 80.3988C766.548 82.1468 762.444 83.3248 757.96 83.9328C753.552 84.6168 749.296 84.9588 745.192 84.9588C738.504 84.9588 732.88 83.9328 728.32 81.8808C723.836 79.8288 720.644 76.5228 718.744 71.9628C716.844 67.4028 716.388 61.4368 717.376 54.0648C718.364 47.2248 719.998 41.6768 722.278 37.4208C724.558 33.1648 727.864 30.0488 732.196 28.0728C736.604 26.0208 742.38 24.9948 749.524 24.9948ZM812.712 24.9948C820.312 24.9948 826.43 26.0208 831.066 28.0728C835.778 30.1248 839.008 33.4308 840.756 37.9908C842.504 42.4748 842.846 48.5168 841.782 56.1168C840.794 63.2608 839.008 68.9608 836.424 73.2168C833.916 77.3968 830.306 80.3988 825.594 82.2228C820.882 84.0468 814.726 84.9588 807.126 84.9588C799.602 84.9588 793.484 83.9708 788.772 81.9948C784.06 79.9428 780.792 76.6748 778.968 72.1908C777.144 67.7068 776.764 61.7408 777.828 54.2928C778.892 46.9968 780.678 41.2208 783.186 36.9648C785.694 32.7088 789.342 29.6688 794.13 27.8448C798.918 25.9448 805.112 24.9948 812.712 24.9948ZM812.256 41.1828C810.204 41.1828 808.608 41.5628 807.468 42.3228C806.328 43.0828 805.416 44.5268 804.732 46.6548C804.048 48.7828 803.402 51.9368 802.794 56.1168C802.338 59.6128 802.11 62.2728 802.11 64.0968C802.186 65.9208 802.68 67.1748 803.592 67.8588C804.58 68.4668 806.062 68.7708 808.038 68.7708C810.014 68.7708 811.534 68.3908 812.598 67.6308C813.662 66.8708 814.498 65.4648 815.106 63.4128C815.79 61.2848 816.436 58.2448 817.044 54.2928C817.576 50.6448 817.804 47.9088 817.728 46.0848C817.652 44.1848 817.196 42.8928 816.36 42.2088C815.524 41.5248 814.156 41.1828 812.256 41.1828ZM872.474 26.5908L873.5 38.2188L875.78 39.5868L869.738 83.5908H845.912L853.892 26.5908H872.474ZM893.906 24.9948C899.454 24.9948 903.52 26.4388 906.104 29.3268C908.764 32.1388 909.714 36.1668 908.954 41.4108L903.026 83.5908H880.112L885.014 48.1368C885.242 46.8448 885.128 46.0468 884.672 45.7428C884.292 45.3628 883.684 45.1728 882.848 45.1728C882.088 45.1728 881.176 45.3248 880.112 45.6288C879.048 45.9328 877.794 46.5028 876.35 47.3388C874.982 48.0988 873.348 49.2008 871.448 50.6448L867.344 40.9548C872.132 35.3308 876.54 31.2648 880.568 28.7568C884.596 26.2488 889.042 24.9948 893.906 24.9948ZM927.764 24.9948C933.464 24.9948 937.606 26.4388 940.19 29.3268C942.85 32.2148 943.8 36.2428 943.04 41.4108L937.112 83.5908H913.4L918.302 48.1368C918.454 46.8448 918.302 46.0468 917.846 45.7428C917.39 45.3628 916.82 45.1728 916.136 45.1728C915.452 45.1728 914.578 45.3248 913.514 45.6288C912.526 45.9328 911.348 46.5028 909.98 47.3388C908.612 48.0988 907.054 49.2008 905.306 50.6448L901.088 40.9548C905.876 35.3308 910.284 31.2648 914.312 28.7568C918.416 26.2488 922.9 24.9948 927.764 24.9948Z" fill="white"/>
</svg>
