<svg width="577" height="618" viewBox="0 0 577 618" fill="none" xmlns="http://www.w3.org/2000/svg">
<path d="M39.5078 72.0429C39.5078 66.5261 43.98 62.0539 49.4968 62.0539H463.783C466.871 62.0539 469.373 64.5566 469.373 67.6439V568.897C469.373 576.063 463.564 581.873 456.397 581.873H52.4842C45.3175 581.873 39.5078 576.063 39.5078 568.897V72.0429Z" fill="white"/>
<path d="M49.4968 62.0539V62.0539C43.98 62.0539 39.5078 66.5261 39.5078 72.0429V568.897C39.5078 576.063 45.3175 581.873 52.4842 581.873H456.397C463.564 581.873 469.373 576.063 469.373 568.897V67.6439C469.373 64.5566 466.871 62.0539 463.783 62.0539V62.0539M49.4968 62.0539L76.8535 39.8736C79.1649 37.9995 82.0502 36.9768 85.0259 36.9768H435.891C439.626 36.9768 443.179 38.5856 445.643 41.3918L463.783 62.0539M49.4968 62.0539H463.783" stroke="#929292" stroke-width="0.540684"/>
<path d="M270.813 471.393V479.973C270.813 482.362 272.75 484.298 275.138 484.298H320.129" stroke="#929292" stroke-width="2.70342"/>
<path d="M336.547 489.938V515.515C336.547 517.904 338.484 519.84 340.873 519.84H442.772C445.161 519.84 447.098 517.904 447.098 515.515V326.324C447.098 323.936 445.161 321.999 442.772 321.999H436.69" stroke="#929292" stroke-width="2.70342"/>
<path d="M343.299 492.555V510.452C343.299 512.841 345.235 514.777 347.624 514.777H439.025C441.413 514.777 443.35 512.841 443.35 510.452V332.444" stroke="#929292" stroke-width="2.70342"/>
<path fill-rule="evenodd" clip-rule="evenodd" d="M170.566 558.748V490.735H175.156V558.36L170.566 558.748Z" fill="#929292"/>
<path fill-rule="evenodd" clip-rule="evenodd" d="M446.372 317.331H445.012V312.74H446.372C450.682 312.74 454.176 316.234 454.176 320.544V540.969C454.176 545.279 450.682 548.773 446.372 548.773H185.342C183.567 548.773 182.129 550.211 182.129 551.986V556.598L177.538 557.726L177.538 551.986C177.538 547.676 181.032 544.182 185.342 544.182H446.372C448.146 544.182 449.585 542.743 449.585 540.969V320.544C449.585 318.77 448.146 317.331 446.372 317.331Z" fill="#929292"/>
<path fill-rule="evenodd" clip-rule="evenodd" d="M225.175 535.265V336.715H229.766V535.265C229.766 537.039 231.205 538.478 232.979 538.478H281.25C285.56 538.478 289.054 541.972 289.054 546.282L289.054 552.33L284.463 552.242L284.463 546.282C284.463 544.507 283.024 543.069 281.25 543.069H232.979C228.669 543.069 225.175 539.575 225.175 535.265Z" fill="#929292"/>
<path d="M239.143 336.434V524.516C239.143 526.905 241.079 528.841 243.468 528.841H325.472C327.861 528.841 329.798 526.905 329.798 524.516V491.875M364.116 491.875L364.115 528.062C364.115 530.451 362.179 532.387 359.79 532.387H239.943C237.554 532.387 235.617 530.451 235.617 528.062L235.618 336.434" stroke="#929292" stroke-width="2.70342"/>
<path d="M402.934 492.273V531.64C402.934 534.029 400.997 535.965 398.608 535.965H236.426C234.037 535.965 232.1 534.029 232.1 531.64V336.434" stroke="#929292" stroke-width="2.70342"/>
<path d="M469.374 451.295V444.649V438.262L534.266 457.7C535.152 458.264 536.924 459.924 536.924 462.05V514.375C535.756 516.832 532.912 521.602 530.882 521.022C528.852 520.441 526.411 518.202 525.444 517.155V512.823L524.164 512.341L498.788 503.149L494.092 506.446L473.966 499.125L469.374 497.455V486.979V467.096V457.7V451.295Z" fill="white"/>
<path d="M525.444 465.917V460.238L501.518 452.02L494.63 456.008L469.374 444.649V451.295L483.114 456.16M525.444 465.917V467.488V507.252M525.444 465.917L505.687 459.132M525.444 465.917L531.719 467.488M536.924 462.05C536.924 459.924 535.152 458.264 534.266 457.7L469.374 438.262V467.096M536.924 462.05C536.924 464.177 536.924 497.82 536.924 514.375C535.756 516.832 532.912 521.602 530.882 521.022M536.924 462.05L531.719 467.488M530.882 521.022C528.852 520.441 526.411 518.202 525.444 517.155V512.823M530.882 521.022L531.719 467.488M525.444 512.823L524.164 512.341L498.788 503.149L494.092 506.446L473.966 499.125M525.444 512.823V507.252M469.374 457.7L474.939 459.467L482.451 456.523L483.114 456.16M483.114 456.16L494.63 460.238L497.631 459.132M473.966 499.125L469.374 497.455V486.979M473.966 499.125L480.32 496.387M497.631 488.928V459.132M497.631 488.928L480.32 496.387M497.631 488.928H505.428M497.631 459.132L501.518 457.7L505.687 459.132M469.374 467.096L474.939 468.811M469.374 467.096V486.979M474.939 468.811L480.32 467.096L479.775 486.979L474.55 488.928M474.939 468.811L474.55 488.928M474.55 488.928L469.374 486.979M480.32 496.387L494.63 501.014L500.126 497.455L505.687 499.607M525.444 507.252L505.687 499.607M505.428 488.928L505.687 459.132M505.428 488.928L505.687 499.607" stroke="#929292" stroke-width="0.540684"/>
<path d="M469.448 131.914V126.138V122.524L529.853 125.26L532.145 128.661C532.539 145.617 533.298 179.78 533.18 180.786C533.032 182.042 528.448 181.673 526.452 181.525C525.774 181.475 525.143 180.979 524.606 180.327C523.877 179.442 523.32 178.27 523.051 177.532L497.173 175.832L495.103 177.902H469.448V173.392V163.411V144.557V131.914Z" fill="white"/>
<path d="M469.374 131.914H469.448M495.842 131.914H469.448M495.842 131.914V130.583M495.842 131.914V164.668M495.842 127.108L469.448 126.138M495.842 127.108V130.583M495.842 127.108L496.582 125.26L522.607 126.147M469.448 126.138V131.914M469.448 126.138V122.524L529.853 125.26L532.145 128.661M469.448 131.914V144.557M469.448 173.392V177.902H495.103M469.448 173.392L477.291 173.211M469.448 173.392V163.411M495.103 172.8L496.582 170.435M495.103 172.8V177.902M495.103 172.8L477.291 173.211M496.582 170.435H501.388M496.582 170.435L497.173 175.832M501.388 170.435L522.993 170.876M501.388 170.435V164.668M501.388 130.583H495.842M501.388 130.583L522.657 131.914M501.388 130.583V164.668M522.607 126.147L524.234 129.105C524.453 129.384 524.649 129.619 524.865 129.815M522.607 126.147L522.657 131.914M532.145 128.661C531.874 129.302 530.163 130.583 527.856 130.583C526.171 130.583 525.449 130.347 524.865 129.815M532.145 128.661C532.539 145.617 533.298 179.78 533.18 180.786C533.032 182.042 528.448 181.673 526.452 181.525C525.774 181.475 525.143 180.979 524.606 180.327M495.103 177.902L497.173 175.832M497.173 175.832L523.051 177.532M523.051 177.532C523.32 178.27 523.877 179.442 524.606 180.327M523.051 177.532L522.993 170.876M524.865 129.815L524.606 180.327M522.657 131.914L522.993 170.876M495.842 164.668H501.388M495.842 164.668H489.484L477.291 173.211M469.448 144.557H475.584M469.448 144.557V163.411M475.584 144.557L478.394 142.709V161.71L475.584 163.411M475.584 144.557V163.411M475.584 163.411H469.448" stroke="#929292" stroke-width="0.540684"/>
<path d="M168.478 526.018C175.93 526.018 182.665 527.866 187.527 530.84C192.394 533.816 195.348 537.891 195.348 542.344C195.348 546.798 192.394 550.873 187.527 553.849C182.665 556.823 175.93 558.671 168.478 558.671C161.025 558.671 154.29 556.823 149.428 553.849C144.561 550.873 141.608 546.798 141.608 542.344C141.608 542.029 141.623 541.717 141.652 541.406L141.686 541.095C142.206 536.928 145.323 533.162 150.127 530.427C154.926 527.696 161.376 526.018 168.478 526.018Z" stroke="#929292" stroke-width="0.540684"/>
<path fill-rule="evenodd" clip-rule="evenodd" d="M141.418 541.062C141.453 540.782 141.499 540.503 141.557 540.227C143.258 532.061 154.662 525.748 168.478 525.748C183.114 525.748 195.043 532.832 195.598 541.699C195.611 541.913 195.618 542.128 195.618 542.345C195.618 551.511 183.467 558.941 168.478 558.941C153.489 558.941 141.338 551.511 141.338 542.345C141.338 541.913 141.365 541.485 141.418 541.062ZM194.989 540.522C194.304 536.868 191.584 533.541 187.429 531.001C182.601 528.048 175.902 526.207 168.478 526.207C161.404 526.207 154.987 527.878 150.22 530.591C146.378 532.778 143.645 535.616 142.458 538.77C145.617 534.328 153.579 528.305 168.478 528.305C184.096 528.305 192.13 535.595 194.989 540.522ZM141.993 540.383C144.261 536.12 152.073 528.764 168.478 528.764C185.144 528.764 192.993 537.139 195.144 541.811C195.154 541.988 195.159 542.166 195.159 542.345C195.159 546.707 192.265 550.731 187.429 553.689C182.601 556.641 175.902 558.482 168.478 558.482C161.054 558.482 154.355 556.641 149.527 553.689C144.691 550.731 141.797 546.707 141.797 542.345C141.797 541.932 141.823 541.524 141.873 541.119C141.904 540.872 141.944 540.627 141.993 540.383Z" fill="#929292"/>
<path fill-rule="evenodd" clip-rule="evenodd" d="M130.311 514.894V481.302H134.902V514.894C134.902 516.669 136.34 518.108 138.115 518.108H159.166C163.476 518.108 166.97 521.602 166.97 525.912V558.484L162.379 558.343V525.912C162.379 524.137 160.94 522.698 159.166 522.698H138.115C133.805 522.698 130.311 519.204 130.311 514.894Z" fill="#929292"/>
<path d="M287.199 547.609C288.658 547.609 289.967 547.905 290.9 548.372C291.849 548.846 292.333 549.452 292.333 550.041C292.333 550.629 291.849 551.235 290.9 551.71C289.967 552.176 288.658 552.473 287.199 552.473C285.739 552.473 284.432 552.176 283.499 551.71C282.549 551.235 282.065 550.629 282.065 550.041C282.065 549.452 282.549 548.846 283.499 548.372C284.432 547.905 285.739 547.609 287.199 547.609Z" stroke="#929292" stroke-width="0.540684"/>
<path d="M287.199 547.609C288.658 547.609 289.967 547.905 290.9 548.372C291.849 548.846 292.333 549.452 292.333 550.041C292.333 550.629 291.849 551.235 290.9 551.71C289.967 552.176 288.658 552.473 287.199 552.473C285.739 552.473 284.432 552.176 283.499 551.71C282.549 551.235 282.065 550.629 282.065 550.041C282.065 549.452 282.549 548.846 283.499 548.372C284.432 547.905 285.739 547.609 287.199 547.609Z" stroke="#929292" stroke-width="0.540684"/>
<path d="M286.84 549.164C287.619 549.164 288.386 549.243 289.092 549.361L289.777 549.49C290.567 549.655 291.065 550.11 291.208 550.547C291.279 550.761 291.268 550.976 291.168 551.173C291.08 551.348 290.914 551.529 290.635 551.683L290.509 551.748C289.611 552.171 288.457 552.473 287.199 552.473C285.789 552.473 284.522 552.211 283.598 551.782L283.418 551.694C283.118 551.539 282.956 551.346 282.882 551.156C282.808 550.964 282.812 550.746 282.896 550.522C283.055 550.096 283.496 549.673 284.118 549.492L284.245 549.458C284.98 549.29 285.859 549.164 286.84 549.164Z" stroke="#929292" stroke-width="0.540684"/>
<path d="M49.4968 62.0539V62.0539C43.98 62.0539 39.5078 66.5261 39.5078 72.0429V568.897C39.5078 576.063 45.3175 581.873 52.4842 581.873H456.397C463.564 581.873 469.373 576.063 469.373 568.897V67.6438C469.373 64.5566 466.871 62.0539 463.783 62.0539V62.0539M49.4968 62.0539L76.8535 39.8736C79.1649 37.9995 82.0502 36.9768 85.0259 36.9768H435.891C439.626 36.9768 443.179 38.5856 445.643 41.3918L463.783 62.0539M49.4968 62.0539H463.783" stroke="#929292" stroke-width="0.540684"/>
<path d="M76.8542 39.8736L49.4977 62.0539H463.784L445.643 41.3918C443.18 38.5856 439.626 36.9768 435.892 36.9768H85.0266C82.0509 36.9768 79.1656 37.9995 76.8542 39.8736Z" fill="white"/>
<path d="M49.4977 62.0539L76.8542 39.8736C79.1656 37.9995 82.0509 36.9768 85.0266 36.9768H435.892C439.626 36.9768 443.18 38.5856 445.643 41.3918L463.784 62.0539M49.4977 62.0539H463.784M49.4977 62.0539H48.44M465.276 62.0539H463.784" stroke="#929292" stroke-width="0.540684"/>
<path d="M60.8213 74.926H448.06C453.882 74.926 458.603 79.6462 458.604 85.469V563.22C458.603 569.043 453.882 573.763 448.06 573.763H59.2051C54.2749 573.763 50.2783 569.766 50.2783 564.836V85.469C50.2784 79.6462 54.9985 74.9261 60.8213 74.926Z" stroke="#929292" stroke-width="0.540684"/>
<rect x="63.036" y="110.342" width="382.646" height="226.161" rx="4.05513" fill="white" stroke="#929292" stroke-width="0.540684"/>
<circle cx="69.7516" cy="117.485" r="2.81721" fill="white" stroke="#929292" stroke-width="0.540684"/>
<circle cx="439.229" cy="117.485" r="2.81721" fill="white" stroke="#929292" stroke-width="0.540684"/>
<circle cx="69.7516" cy="327.433" r="2.81721" fill="white" stroke="#929292" stroke-width="0.540684"/>
<circle cx="439.229" cy="327.433" r="2.81721" fill="white" stroke="#929292" stroke-width="0.540684"/>
<rect x="96.1766" y="138.379" width="327.58" height="170.227" rx="4.05513" fill="white" stroke="#929292" stroke-width="0.540684"/>
<path d="M485.134 308.715V335.425L469.644 339.738V306.186L485.134 308.715Z" fill="white" stroke="#929292" stroke-width="0.540684"/>
<path d="M477.304 316.974C479.574 317.472 481.192 319.483 481.192 321.807C481.192 324.126 479.584 326.124 477.341 326.632L477.122 326.677L473.511 327.328V316.142L477.304 316.974Z" fill="white" stroke="#929292" stroke-width="0.540684"/>
<path d="M84.6162 372.113C84.6162 369.832 86.4654 367.983 88.7464 367.983H221.32C222.827 367.983 224.048 369.204 224.048 370.711V486.538C224.048 488.927 222.111 490.864 219.722 490.864H88.9417C86.5528 490.864 84.6162 488.927 84.6162 486.538V372.113Z" fill="white"/>
<path d="M88.7464 367.983V367.983C86.4654 367.983 84.6162 369.832 84.6162 372.113V486.538C84.6162 488.927 86.5528 490.864 88.9417 490.864H219.722C222.111 490.864 224.048 488.927 224.048 486.538V370.711C224.048 369.204 222.827 367.983 221.32 367.983V367.983M88.7464 367.983L92.588 364.824C93.3621 364.188 94.3331 363.84 95.3352 363.84H214.598C215.575 363.84 216.524 364.171 217.289 364.779L221.32 367.983M88.7464 367.983H221.32" stroke="#929292" stroke-width="0.540684"/>
<rect x="102.232" y="384.194" width="105.793" height="71.562" rx="1.89239" stroke="#929292" stroke-width="0.540684"/>
<rect x="102.232" y="468.92" width="105.793" height="13.0282" rx="1.89239" stroke="#929292" stroke-width="0.540684"/>
<rect x="104.31" y="471.91" width="14.7405" height="7.23058" rx="1.89239" stroke="#929292" stroke-width="0.540684"/>
<rect x="133.36" y="471.91" width="14.7405" height="7.23058" rx="1.89239" stroke="#929292" stroke-width="0.540684"/>
<rect x="162.411" y="471.91" width="14.7405" height="7.23058" rx="1.89239" stroke="#929292" stroke-width="0.540684"/>
<rect x="191.461" y="471.91" width="14.7405" height="7.23058" rx="1.89239" stroke="#929292" stroke-width="0.540684"/>
<g clip-path="url(#clip0_44_1254)">
<path d="M109.982 473.202C110.039 473.203 110.094 473.22 110.14 473.251L110.183 473.287C110.222 473.326 110.25 473.377 110.262 473.431L110.268 473.487C110.269 473.561 110.242 473.634 110.191 473.689L109.287 474.593L109.194 474.685H113.86C114.194 474.685 114.517 474.801 114.772 475.011L114.878 475.107C115.147 475.377 115.299 475.742 115.299 476.124C115.299 476.457 115.182 476.779 114.973 477.035L114.878 477.14C114.608 477.41 114.242 477.561 113.86 477.561H112.942C112.866 477.561 112.792 477.53 112.737 477.476C112.683 477.422 112.652 477.348 112.652 477.271C112.652 477.194 112.683 477.12 112.737 477.066C112.792 477.012 112.866 476.981 112.942 476.981H113.86C114.059 476.981 114.252 476.912 114.404 476.787L114.467 476.73C114.628 476.569 114.718 476.351 114.718 476.124C114.718 475.896 114.628 475.678 114.467 475.517C114.306 475.356 114.088 475.266 113.86 475.266H109.194L109.287 475.358L110.191 476.262L110.192 476.264C110.207 476.277 110.22 476.291 110.231 476.307L110.26 476.358C110.276 476.394 110.284 476.432 110.285 476.471C110.286 476.51 110.278 476.548 110.264 476.584C110.249 476.621 110.228 476.654 110.2 476.681C110.186 476.695 110.171 476.708 110.155 476.718L110.104 476.746C110.068 476.76 110.029 476.767 109.99 476.766C109.971 476.766 109.951 476.764 109.932 476.759L109.877 476.742C109.859 476.734 109.842 476.724 109.826 476.712L109.782 476.674L109.781 476.672L108.084 474.975L108.289 474.771L109.78 473.28C109.821 473.242 109.872 473.216 109.927 473.207L109.982 473.202Z" fill="#929292" stroke="#929292" stroke-width="0.108137"/>
</g>
<path d="M137.976 476.582L140.73 473.828L143.485 476.582H137.976Z" fill="#929292" stroke="#929292" stroke-width="0.540684" stroke-linejoin="round"/>
<path d="M172.861 473.828L170.106 476.582L167.352 473.828L172.861 473.828Z" fill="#929292" stroke="#929292" stroke-width="0.540684" stroke-linejoin="round"/>
<path d="M202.985 472.908C202.863 472.908 202.746 472.957 202.66 473.043C202.574 473.129 202.526 473.246 202.526 473.367V475.204C202.526 475.325 202.477 475.442 202.391 475.528C202.305 475.614 202.188 475.663 202.067 475.663H197.664L198.261 475.07C198.347 474.984 198.396 474.867 198.396 474.745C198.396 474.622 198.347 474.505 198.261 474.419C198.175 474.332 198.057 474.284 197.935 474.284C197.813 474.284 197.696 474.332 197.609 474.419L196.232 475.796C196.19 475.839 196.157 475.891 196.136 475.947C196.09 476.059 196.09 476.184 196.136 476.296C196.157 476.353 196.19 476.404 196.232 476.448L197.609 477.825C197.652 477.868 197.703 477.902 197.758 477.925C197.814 477.949 197.874 477.961 197.935 477.961C197.996 477.961 198.056 477.949 198.112 477.925C198.168 477.902 198.218 477.868 198.261 477.825C198.304 477.782 198.338 477.731 198.361 477.675C198.385 477.62 198.397 477.56 198.397 477.499C198.397 477.438 198.385 477.378 198.361 477.322C198.338 477.266 198.304 477.216 198.261 477.173L197.664 476.581H202.067C202.432 476.581 202.782 476.436 203.04 476.177C203.299 475.919 203.444 475.569 203.444 475.204V473.367C203.444 473.246 203.395 473.129 203.309 473.043C203.223 472.957 203.106 472.908 202.985 472.908Z" fill="#929292"/>
<path d="M142.596 389.573L140.666 391.53H134.326L132.396 389.573H142.596ZM142.596 407.834H132.396L134.326 405.878H140.666L142.596 407.834ZM133.987 400.295V405.513L132.031 407.469V399.825L132.761 399.069L133.987 400.295ZM132.031 397.608V389.938L133.987 391.895V397.112L132.761 398.339L132.031 397.608ZM142.961 399.825V407.469L141.031 405.513V400.295L142.257 399.069L142.961 399.825ZM141.031 397.112V391.895L142.961 389.938V397.608L142.257 398.339L141.031 397.112ZM140.9 397.738L141.892 398.704L140.9 399.669H134.091L133.126 398.704L134.091 397.738H140.9ZM156.664 389.573L154.733 391.53H148.394L146.464 389.573H156.664ZM156.664 407.834H146.464L148.394 405.878H154.733L156.664 407.834ZM148.055 400.295V405.513L146.098 407.469V399.825L146.829 399.069L148.055 400.295ZM146.098 397.608V389.938L148.055 391.895V397.112L146.829 398.339L146.098 397.608ZM157.029 399.825V407.469L155.099 405.513V400.295L156.325 399.069L157.029 399.825ZM155.099 397.112V391.895L157.029 389.938V397.608L156.325 398.339L155.099 397.112ZM154.968 397.738L155.96 398.704L154.968 399.669H148.159L147.194 398.704L148.159 397.738H154.968ZM160.166 407.834V405.878H162.123V407.834H160.166ZM175.804 389.573L173.874 391.53H167.534L165.604 389.573H175.804ZM175.804 407.834H165.604L167.534 405.878H173.874L175.804 407.834ZM167.195 400.295V405.513L165.239 407.469V399.825L165.969 399.069L167.195 400.295ZM165.239 397.608V389.938L167.195 391.895V397.112L165.969 398.339L165.239 397.608ZM176.169 399.825V407.469L174.239 405.513V400.295L175.465 399.069L176.169 399.825ZM174.239 397.112V391.895L176.169 389.938V397.608L175.465 398.339L174.239 397.112ZM174.108 397.738L175.1 398.704L174.108 399.669H167.3L166.334 398.704L167.3 397.738H174.108ZM189.872 389.573L187.941 391.53H181.602L179.672 389.573H189.872ZM189.872 407.834H179.672L181.602 405.878H187.941L189.872 407.834ZM181.263 400.295V405.513L179.307 407.469V399.825L180.037 399.069L181.263 400.295ZM179.307 397.608V389.938L181.263 391.895V397.112L180.037 398.339L179.307 397.608ZM190.237 399.825V407.469L188.307 405.513V400.295L189.533 399.069L190.237 399.825ZM188.307 397.112V391.895L190.237 389.938V397.608L189.533 398.339L188.307 397.112ZM188.176 397.738L189.168 398.704L188.176 399.669H181.367L180.402 398.704L181.367 397.738H188.176Z" fill="#929292"/>
<path d="M142.597 413.307L140.666 415.263H134.327L132.396 413.307H142.597ZM142.597 431.568H132.396L134.327 429.612H140.666L142.597 431.568ZM133.988 424.029V429.246L132.031 431.203V423.559L132.762 422.803L133.988 424.029ZM132.031 421.342V413.672L133.988 415.629V420.846L132.762 422.072L132.031 421.342ZM142.962 423.559V431.203L141.031 429.246V424.029L142.257 422.803L142.962 423.559ZM141.031 420.846V415.629L142.962 413.672V421.342L142.257 422.072L141.031 420.846ZM140.901 421.472L141.892 422.437L140.901 423.403H134.092L133.127 422.437L134.092 421.472H140.901ZM156.664 413.307L154.734 415.263H148.395L146.464 413.307H156.664ZM156.664 431.568H146.464L148.395 429.612H154.734L156.664 431.568ZM148.056 424.029V429.246L146.099 431.203V423.559L146.829 422.803L148.056 424.029ZM146.099 421.342V413.672L148.056 415.629V420.846L146.829 422.072L146.099 421.342ZM157.03 423.559V431.203L155.099 429.246V424.029L156.325 422.803L157.03 423.559ZM155.099 420.846V415.629L157.03 413.672V421.342L156.325 422.072L155.099 420.846ZM154.969 421.472L155.96 422.437L154.969 423.403H148.16L147.195 422.437L148.16 421.472H154.969ZM160.167 431.568V429.612H162.123V431.568H160.167ZM175.805 413.307L173.874 415.263H167.535L165.604 413.307H175.805ZM175.805 431.568H165.604L167.535 429.612H173.874L175.805 431.568ZM167.196 424.029V429.246L165.239 431.203V423.559L165.97 422.803L167.196 424.029ZM165.239 421.342V413.672L167.196 415.629V420.846L165.97 422.072L165.239 421.342ZM176.17 423.559V431.203L174.239 429.246V424.029L175.465 422.803L176.17 423.559ZM174.239 420.846V415.629L176.17 413.672V421.342L175.465 422.072L174.239 420.846ZM174.109 421.472L175.1 422.437L174.109 423.403H167.3L166.335 422.437L167.3 421.472H174.109ZM189.872 413.307L187.942 415.263H181.603L179.672 413.307H189.872ZM189.872 431.568H179.672L181.603 429.612H187.942L189.872 431.568ZM181.264 424.029V429.246L179.307 431.203V423.559L180.037 422.803L181.264 424.029ZM179.307 421.342V413.672L181.264 415.629V420.846L180.037 422.072L179.307 421.342ZM190.238 423.559V431.203L188.307 429.246V424.029L189.533 422.803L190.238 423.559ZM188.307 420.846V415.629L190.238 413.672V421.342L189.533 422.072L188.307 420.846ZM188.177 421.472L189.168 422.437L188.177 423.403H181.368L180.403 422.437L181.368 421.472H188.177Z" fill="#929292"/>
<path d="M184.776 443.621L184.271 444.145L183.391 443.265V439.521L184.776 438.117V443.621ZM184.514 437.855L183.129 439.259H178.58L177.194 437.855H184.514ZM178.336 443.265L177.457 444.145L176.932 443.621V438.117L178.336 439.521V443.265ZM184.776 450.698L183.391 449.294V445.549L184.271 444.67L184.776 445.212V450.698ZM184.514 450.96H177.194L178.58 449.556H183.129L184.514 450.96ZM178.336 449.294L176.932 450.698V445.212L177.457 444.67L178.336 445.549V449.294ZM194.872 443.621L194.366 444.145L193.487 443.265V439.521L194.872 438.117V443.621ZM194.61 437.855L193.225 439.259H188.675L187.29 437.855H194.61ZM188.432 443.265L187.552 444.145L187.028 443.621V438.117L188.432 439.521V443.265ZM194.872 450.698L193.487 449.294V445.549L194.366 444.67L194.872 445.212V450.698ZM194.61 450.96H187.29L188.675 449.556H193.225L194.61 450.96ZM188.432 449.294L187.028 450.698V445.212L187.552 444.67L188.432 445.549V449.294Z" fill="#929292"/>
<path d="M121.411 417.573L120.273 418.741L119.135 417.573V411.424L120.58 409.979L121.411 410.871V417.573ZM108.529 417.573L109.666 418.741L110.835 417.573V411.424L109.39 409.979L108.529 410.871V417.573ZM111.234 420.309L110.097 419.171L111.234 418.003H118.705L119.843 419.171L118.705 420.309H111.234ZM108.529 408.257V398.788L110.835 401.094V407.673L109.39 409.118L108.529 408.257ZM119.135 407.673V401.094L121.411 398.788V408.257L120.58 409.118L119.135 407.673Z" fill="#929292"/>
<path d="M112.661 366.262V336.4M118.116 366.262V336.4M123.913 366.262V336.4M131.414 366.262V336.4M137.893 366.262V336.4M152.555 366.262V336.4M158.692 366.262V336.4M165.512 366.262V336.4" stroke="#929292" stroke-width="3.2441"/>
<path d="M427.079 347.731H375.707L386.943 377.982H439.205L427.079 347.731Z" fill="white"/>
<path d="M390.687 388.443H443.35L439.205 377.982H386.943L390.687 388.443Z" fill="white"/>
<path d="M390.687 494.088V388.443L386.943 377.982L375.707 347.731V467.515L390.687 494.088Z" fill="white"/>
<path d="M443.35 388.443H390.687V494.088H443.35V388.443Z" fill="white"/>
<path d="M390.687 388.443H443.35M390.687 388.443V494.088M390.687 388.443L386.943 377.982M443.35 388.443V494.088H390.687M443.35 388.443L439.205 377.982M390.687 494.088L375.707 467.515V347.731M375.707 347.731H427.079L439.205 377.982M375.707 347.731L386.943 377.982M386.943 377.982H439.205" stroke="#929292" stroke-width="0.540684"/>
<circle cx="409.949" cy="488.56" r="2.30381" fill="#929292" stroke="#929292" stroke-width="0.540684"/>
<circle cx="402.156" cy="396.813" r="2.30381" fill="#929292" stroke="#929292" stroke-width="0.540684"/>
<circle cx="408.554" cy="396.812" r="2.30381" fill="#929292" stroke="#929292" stroke-width="0.540684"/>
<circle cx="414.951" cy="396.812" r="2.30381" fill="#929292" stroke="#929292" stroke-width="0.540684"/>
<circle cx="421.349" cy="396.812" r="2.30381" fill="#929292" stroke="#929292" stroke-width="0.540684"/>
<circle cx="427.747" cy="396.812" r="2.30381" fill="#929292" stroke="#929292" stroke-width="0.540684"/>
<circle cx="434.145" cy="396.812" r="2.30381" fill="#929292" stroke="#929292" stroke-width="0.540684"/>
<circle cx="418.15" cy="488.56" r="2.30381" fill="#929292" stroke="#929292" stroke-width="0.540684"/>
<circle cx="426.351" cy="488.56" r="2.30381" fill="#929292" stroke="#929292" stroke-width="0.540684"/>
<rect x="395.58" y="405.674" width="42.5478" height="77.6222" rx="4.32547" stroke="#929292" stroke-width="0.540684"/>
<rect x="398.273" y="452.586" width="15.1884" height="6.87948" fill="#929292" stroke="#929292" stroke-width="0.540684"/>
<rect x="398.273" y="461.401" width="15.1884" height="17.8671" fill="#929292" stroke="#929292" stroke-width="0.540684"/>
<rect x="415.847" y="452.586" width="20.4873" height="6.87948" fill="#929292" stroke="#929292" stroke-width="0.540684"/>
<rect x="398.496" y="412.827" width="37.8387" height="3.21643" fill="#929292" stroke="#929292" stroke-width="0.540684"/>
<circle cx="405.867" cy="420.689" r="1.96557" fill="#929292" stroke="#929292" stroke-width="0.540684"/>
<circle cx="405.867" cy="436.297" r="1.96557" fill="#929292" stroke="#929292" stroke-width="0.540684"/>
<rect x="415.058" y="417.83" width="21.276" height="6.16478" fill="#929292" stroke="#929292" stroke-width="0.540684"/>
<rect x="415.058" y="425.927" width="21.276" height="6.16478" fill="#929292" stroke="#929292" stroke-width="0.540684"/>
<rect x="415.058" y="434.025" width="21.276" height="6.16478" fill="#929292" stroke="#929292" stroke-width="0.540684"/>
<rect x="398.131" y="444.485" width="38.2031" height="6.16478" fill="#929292" stroke="#929292" stroke-width="0.540684"/>
<path d="M356.019 388.526H384.106V493.961H356.019V388.526Z" fill="white"/>
<path d="M356.019 493.961V388.526L352.723 377.766L342.762 347.589V465.958L356.019 493.961Z" fill="white"/>
<path d="M356.019 388.526H384.106L380.873 377.766H352.723L356.019 388.526Z" fill="white"/>
<path d="M371.012 347.589H342.762L352.723 377.766H380.873L371.012 347.589Z" fill="white"/>
<path d="M356.019 388.526H384.106M356.019 388.526V493.961M356.019 388.526L352.723 377.766M384.106 388.526V493.961H356.019M384.106 388.526L380.873 377.766M356.019 493.961L342.762 465.958V347.589M342.762 347.589H371.012L380.873 377.766M342.762 347.589L352.723 377.766M352.723 377.766H380.873" stroke="#929292" stroke-width="0.540684"/>
<circle cx="369.112" cy="434.026" r="2.30381" fill="#929292"/>
<circle cx="370.063" cy="420.557" r="2.30381" fill="#929292"/>
<circle cx="362.241" cy="488.432" r="2.30381" fill="#929292"/>
<circle cx="362.241" cy="396.405" r="2.30381" fill="#929292"/>
<circle cx="370.442" cy="488.432" r="2.30381" fill="#929292"/>
<circle cx="370.442" cy="396.405" r="2.30381" fill="#929292"/>
<circle cx="378.643" cy="488.432" r="2.30381" fill="#929292"/>
<circle cx="378.643" cy="396.405" r="2.30381" fill="#929292"/>
<rect x="361.182" y="405.816" width="17.7616" height="77.0815" rx="4.05513" stroke="#929292" stroke-width="0.540684"/>
<rect x="363.216" y="455.498" width="13.6946" height="8.28457" fill="#929292"/>
<rect x="365.317" y="412.767" width="9.49004" height="3.2412" fill="#929292"/>
<rect x="365.317" y="424.211" width="9.49004" height="3.2412" fill="#929292"/>
<rect x="365.317" y="439.854" width="9.49004" height="3.2412" fill="#929292"/>
<rect x="364.02" y="466.027" width="12.8904" height="3.2412" fill="#929292"/>
<rect x="367.77" y="470.619" width="9.14014" height="3.2412" fill="#929292"/>
<rect x="365.819" y="475.211" width="11.0916" height="3.2412" fill="#929292"/>
<path d="M323.973 388.526H352.06V493.961H323.973V388.526Z" fill="white"/>
<path d="M323.973 493.961V388.526L320.665 377.69L310.716 347.588V465.958L323.973 493.961Z" fill="white"/>
<path d="M323.973 388.526H352.06L348.816 377.69H320.665L323.973 388.526Z" fill="white"/>
<path d="M338.965 347.588H310.716L320.665 377.69H348.816L338.965 347.588Z" fill="white"/>
<path d="M323.973 388.526H352.06M323.973 388.526V493.961M323.973 388.526L320.665 377.69M352.06 388.526V493.961H323.973M352.06 388.526L348.816 377.69M323.973 493.961L310.716 465.958V347.588M310.716 347.588H338.965L348.816 377.69M310.716 347.588L320.665 377.69M320.665 377.69H348.816" stroke="#929292" stroke-width="0.540684"/>
<circle cx="337.066" cy="434.026" r="2.30381" fill="#929292"/>
<circle cx="338.017" cy="420.557" r="2.30381" fill="#929292"/>
<circle cx="330.195" cy="488.432" r="2.30381" fill="#929292"/>
<circle cx="330.195" cy="396.405" r="2.30381" fill="#929292"/>
<circle cx="338.397" cy="488.432" r="2.30381" fill="#929292"/>
<circle cx="338.397" cy="396.405" r="2.30381" fill="#929292"/>
<circle cx="346.597" cy="488.432" r="2.30381" fill="#929292"/>
<circle cx="346.597" cy="396.405" r="2.30381" fill="#929292"/>
<rect x="329.136" y="405.816" width="17.7616" height="77.0815" rx="4.05513" stroke="#929292" stroke-width="0.540684"/>
<rect x="331.169" y="455.498" width="13.6946" height="8.28457" fill="#929292"/>
<rect x="333.272" y="412.767" width="9.49004" height="3.2412" fill="#929292"/>
<rect x="333.272" y="424.211" width="9.49004" height="3.2412" fill="#929292"/>
<rect x="333.272" y="439.854" width="9.49004" height="3.2412" fill="#929292"/>
<rect x="331.973" y="466.027" width="12.8904" height="3.2412" fill="#929292"/>
<rect x="335.724" y="470.619" width="9.14014" height="3.2412" fill="#929292"/>
<rect x="333.772" y="475.211" width="11.0916" height="3.2412" fill="#929292"/>
<path d="M262.526 445.15H317.518V399.12H262.526V445.15Z" fill="white"/>
<path d="M313.376 364.266H258.707V455.297V470.755H313.376V455.297V445.15H317.518H262.526V399.12L258.707 391.684L313.376 391.325V364.266Z" fill="white"/>
<path d="M313.376 391.325L258.707 391.684L262.526 399.12H317.518L313.376 391.325Z" fill="white"/>
<path d="M258.707 364.266H313.376L306.405 347.596H253.331L258.707 364.266Z" fill="white"/>
<path d="M258.707 470.755V455.297V436.326V391.684V364.266L253.331 347.596V451.306L258.707 470.755Z" fill="white"/>
<path d="M258.707 364.266H313.376M258.707 364.266L253.331 347.596M258.707 364.266V391.684M258.707 364.266V455.297M313.376 364.266V391.325M313.376 364.266L306.405 347.596H253.331M258.707 470.755H313.376V455.297M258.707 470.755L253.331 451.306V347.596M258.707 470.755V455.297M313.376 455.297V445.15H317.518M313.376 455.297H258.707M258.707 436.326L262.526 445.15M258.707 436.326V391.684M258.707 436.326V455.297M317.518 445.15V399.12M317.518 445.15H262.526M258.707 391.684L313.376 391.325M258.707 391.684L262.526 399.12M313.376 391.325L317.518 399.12M262.526 399.12H317.518M262.526 399.12V445.15" stroke="#929292" stroke-width="0.540684"/>
<circle cx="272.323" cy="376.5" r="4.58294" stroke="#929292" stroke-width="0.540684"/>
<circle cx="272.323" cy="463.01" r="4.58294" stroke="#929292" stroke-width="0.540684"/>
<circle cx="296.334" cy="376.5" r="4.58294" stroke="#929292" stroke-width="0.540684"/>
<circle cx="296.334" cy="463.01" r="4.58294" stroke="#929292" stroke-width="0.540684"/>
<path d="M267.114 416.213H312.688M267.114 416.213V428.092M267.114 416.213L265.949 414.505M312.688 416.213L310.592 414.505H265.949M312.688 416.213V426.695M312.688 428.092H307.564M312.688 428.092H314.008M312.688 428.092V426.695M267.114 428.092L265.949 426.695M267.114 428.092V438.884M267.114 428.092H270.841M265.949 414.505V426.695M265.949 426.695V437.564L267.114 438.884M267.114 438.884H270.841V435.313M270.841 428.092V435.313M270.841 428.092H283.418M270.841 435.313H281.244M283.418 435.313V428.092M283.418 435.313H281.244M283.418 435.313V438.884M283.418 428.092H295.375M281.244 435.313V436.71L283.418 438.884M283.418 438.884H295.375V435.702M295.375 428.092V435.702M295.375 428.092H307.564M295.375 435.702H306.244M307.564 436.71V428.092M307.564 436.71L306.244 435.702M307.564 436.71V438.884M307.564 438.884L306.244 437.564V435.702M307.564 438.884H314.008V428.092M314.008 428.092L312.688 426.695" stroke="#929292" stroke-width="0.540684"/>
<rect x="266.22" y="408.269" width="22.8767" height="4.27494" fill="#929292" stroke="#929292" stroke-width="0.540684"/>
<path d="M270.813 361.511V336.4" stroke="#929292" stroke-width="2.70342"/>
<path d="M295.47 361.511V336.4" stroke="#929292" stroke-width="2.70342"/>
<path d="M329.234 385.986V336.434" stroke="#929292" stroke-width="2.70342"/>
<path d="M335.965 385.987V336.434" stroke="#929292" stroke-width="2.70342"/>
<path d="M361.001 385.987V336.434" stroke="#929292" stroke-width="2.70342"/>
<path d="M367.752 385.987V336.434" stroke="#929292" stroke-width="2.70342"/>
<path d="M395.882 386.589V336.434" stroke="#929292" stroke-width="2.70342"/>
<path d="M409.64 386.589V336.434" stroke="#929292" stroke-width="2.70342"/>
<path d="M236.408 214.775H234.008V213.166C234.008 212.699 233.981 212.408 233.928 212.294C233.879 212.176 233.767 212.117 233.592 212.117C233.394 212.117 233.269 212.187 233.215 212.328C233.162 212.469 233.136 212.773 233.136 213.241V217.53C233.136 217.979 233.162 218.272 233.215 218.409C233.269 218.546 233.388 218.614 233.574 218.614C233.753 218.614 233.869 218.546 233.922 218.409C233.979 218.272 234.008 217.951 234.008 217.445V216.287H236.408V216.646C236.408 217.601 236.339 218.278 236.202 218.677C236.069 219.076 235.771 219.426 235.307 219.727C234.848 220.027 234.28 220.177 233.603 220.177C232.9 220.177 232.321 220.05 231.864 219.795C231.408 219.54 231.106 219.188 230.958 218.74C230.81 218.287 230.736 217.608 230.736 216.703V214.005C230.736 213.339 230.759 212.841 230.804 212.51C230.85 212.176 230.985 211.854 231.209 211.546C231.437 211.238 231.751 210.997 232.15 210.822C232.552 210.643 233.014 210.554 233.535 210.554C234.242 210.554 234.825 210.691 235.285 210.964C235.744 211.238 236.047 211.581 236.191 211.991C236.335 212.398 236.408 213.033 236.408 213.897V214.775Z" fill="#929292"/>
<path d="M242.786 210.747V219.983H240.386V216.103H239.668V219.983H237.269V210.747H239.668V214.05H240.386V210.747H242.786Z" fill="#929292"/>
<path d="M246.155 210.747V219.983H243.755V210.747H246.155Z" fill="#929292"/>
<path d="M252.573 210.747V216.919C252.573 217.619 252.55 218.111 252.505 218.397C252.459 218.678 252.324 218.969 252.1 219.27C251.876 219.566 251.579 219.792 251.211 219.948C250.846 220.101 250.415 220.177 249.917 220.177C249.366 220.177 248.88 220.085 248.458 219.903C248.036 219.72 247.72 219.483 247.511 219.19C247.302 218.897 247.179 218.589 247.141 218.266C247.103 217.938 247.084 217.254 247.084 216.212V210.747H249.484V217.672C249.484 218.075 249.505 218.334 249.546 218.448C249.592 218.558 249.681 218.614 249.814 218.614C249.966 218.614 250.063 218.553 250.105 218.431C250.151 218.305 250.173 218.013 250.173 217.552V210.747H252.573Z" fill="#929292"/>
<path d="M282.43 214.775H280.027V213.166C280.027 212.699 280 212.408 279.947 212.294C279.897 212.176 279.785 212.117 279.61 212.117C279.412 212.117 279.286 212.187 279.233 212.328C279.18 212.469 279.153 212.773 279.153 213.241V217.53C279.153 217.979 279.18 218.272 279.233 218.409C279.286 218.546 279.406 218.614 279.593 218.614C279.772 218.614 279.888 218.546 279.941 218.409C279.998 218.272 280.027 217.951 280.027 217.445V216.287H282.43V216.646C282.43 217.601 282.361 218.278 282.224 218.677C282.091 219.076 281.792 219.426 281.328 219.727C280.868 220.027 280.299 220.177 279.621 220.177C278.917 220.177 278.337 220.05 277.88 219.795C277.424 219.54 277.121 219.188 276.973 218.74C276.824 218.287 276.75 217.608 276.75 216.703V214.005C276.75 213.339 276.773 212.841 276.818 212.51C276.864 212.176 276.999 211.854 277.224 211.546C277.452 211.238 277.766 210.997 278.166 210.822C278.569 210.643 279.032 210.554 279.553 210.554C280.261 210.554 280.845 210.691 281.305 210.964C281.766 211.238 282.068 211.581 282.213 211.991C282.358 212.398 282.43 213.033 282.43 213.897V214.775Z" fill="#929292"/>
<path d="M288.818 210.747V219.983H286.415V216.103H285.695V219.983H283.292V210.747H285.695V214.05H286.415V210.747H288.818Z" fill="#929292"/>
<path d="M293.939 210.747L295.315 219.983H292.855L292.735 218.323H291.873L291.73 219.983H289.241L290.463 210.747H293.939ZM292.666 216.685C292.544 215.64 292.423 214.348 292.301 212.812C292.057 214.577 291.905 215.868 291.844 216.685H292.666Z" fill="#929292"/>
<path d="M301.188 210.747V216.919C301.188 217.619 301.165 218.111 301.12 218.397C301.074 218.678 300.939 218.969 300.714 219.27C300.49 219.566 300.193 219.792 299.824 219.948C299.458 220.101 299.026 220.177 298.528 220.177C297.976 220.177 297.489 220.085 297.067 219.903C296.644 219.72 296.328 219.483 296.119 219.19C295.91 218.897 295.786 218.589 295.748 218.266C295.71 217.938 295.691 217.254 295.691 216.212V210.747H298.094V217.672C298.094 218.075 298.115 218.334 298.157 218.448C298.202 218.558 298.292 218.614 298.425 218.614C298.577 218.614 298.674 218.553 298.716 218.431C298.762 218.305 298.785 218.013 298.785 217.552V210.747H301.188Z" fill="#929292"/>
<path d="M209.028 233.702V228.11L229.566 197.289H234.246L240.225 205.742H234.246L232.036 202.1L214.878 228.11H249.454L246.464 223.688H252.314L254.783 228.11L276.101 197.289H281.04L286.5 205.742H281.04L278.571 202.1L261.153 228.11H295.469L292.479 223.688H298.199L301.058 228.11V233.702H209.028Z" fill="#929292"/>
<path d="M220.994 237.734H209.158V240.392H220.994V237.734Z" fill="#929292"/>
<path d="M220.994 242.325H209.158V244.983H220.994V242.325Z" fill="#929292"/>
<path d="M220.994 246.917H209.158V249.575H220.994V246.917Z" fill="#929292"/>
<path d="M301.187 237.734H289.352V240.392H301.187V237.734Z" fill="#929292"/>
<path d="M301.187 242.325H289.352V244.983H301.187V242.325Z" fill="#929292"/>
<path d="M301.187 246.917H289.352V249.575H301.187V246.917Z" fill="#929292"/>
<path d="M231.266 241.928H233.693C233.619 241.273 233.438 240.692 233.15 240.184C232.863 239.677 232.496 239.254 232.048 238.916C231.612 238.567 231.111 238.303 230.547 238.124C229.993 237.944 229.402 237.854 228.774 237.854C227.901 237.854 227.113 238.007 226.41 238.314C225.718 238.62 225.133 239.043 224.653 239.582C224.174 240.121 223.807 240.755 223.551 241.484C223.296 242.203 223.168 242.985 223.168 243.83C223.168 244.655 223.296 245.426 223.551 246.145C223.807 246.853 224.174 247.471 224.653 248C225.133 248.528 225.718 248.945 226.41 249.252C227.113 249.548 227.901 249.696 228.774 249.696C229.477 249.696 230.121 249.59 230.707 249.379C231.292 249.167 231.803 248.861 232.24 248.459C232.676 248.058 233.028 247.571 233.294 247.001C233.56 246.43 233.725 245.791 233.789 245.083H231.362C231.266 245.844 231 246.457 230.563 246.921C230.137 247.387 229.541 247.619 228.774 247.619C228.21 247.619 227.73 247.513 227.337 247.302C226.943 247.08 226.623 246.79 226.378 246.43C226.133 246.071 225.952 245.669 225.835 245.225C225.729 244.771 225.676 244.306 225.676 243.83C225.676 243.334 225.729 242.853 225.835 242.388C225.952 241.923 226.133 241.511 226.378 241.151C226.623 240.782 226.943 240.491 227.337 240.28C227.73 240.058 228.21 239.947 228.774 239.947C229.083 239.947 229.376 240 229.652 240.105C229.94 240.2 230.196 240.338 230.419 240.517C230.643 240.697 230.829 240.908 230.978 241.151C231.127 241.384 231.223 241.643 231.266 241.928Z" fill="#929292"/>
<path d="M235.357 247.001V249.442H237.865V247.001H235.357Z" fill="#929292"/>
<path d="M247.55 241.928H249.978C249.903 241.273 249.722 240.692 249.435 240.184C249.147 239.677 248.78 239.254 248.333 238.916C247.896 238.567 247.396 238.303 246.831 238.124C246.277 237.944 245.687 237.854 245.058 237.854C244.185 237.854 243.397 238.007 242.695 238.314C242.002 238.62 241.417 239.043 240.938 239.582C240.458 240.121 240.091 240.755 239.835 241.484C239.58 242.203 239.452 242.985 239.452 243.83C239.452 244.655 239.58 245.426 239.835 246.145C240.091 246.853 240.458 247.471 240.938 248C241.417 248.528 242.002 248.945 242.695 249.252C243.397 249.548 244.185 249.696 245.058 249.696C245.761 249.696 246.405 249.59 246.991 249.379C247.577 249.167 248.088 248.861 248.524 248.459C248.961 248.058 249.312 247.571 249.578 247.001C249.845 246.43 250.01 245.791 250.074 245.083H247.646C247.55 245.844 247.284 246.457 246.847 246.921C246.421 247.387 245.825 247.619 245.058 247.619C244.494 247.619 244.015 247.513 243.621 247.302C243.227 247.08 242.907 246.79 242.663 246.43C242.418 246.071 242.237 245.669 242.119 245.225C242.013 244.771 241.96 244.306 241.96 243.83C241.96 243.334 242.013 242.853 242.119 242.388C242.237 241.923 242.418 241.511 242.663 241.151C242.907 240.782 243.227 240.491 243.621 240.28C244.015 240.058 244.494 239.947 245.058 239.947C245.367 239.947 245.66 240 245.937 240.105C246.224 240.2 246.48 240.338 246.703 240.517C246.927 240.697 247.113 240.908 247.262 241.151C247.411 241.384 247.507 241.643 247.55 241.928Z" fill="#929292"/>
<path d="M251.642 247.001V249.442H254.149V247.001H251.642Z" fill="#929292"/>
<path d="M258.019 238.124V249.443H260.527V244.766H265.302V242.832H260.527V240.217H266.037V238.124H258.019Z" fill="#929292"/>
<path d="M269.489 245.068L270.974 240.914H271.006L272.444 245.068H269.489ZM269.728 238.124L265.416 249.443H267.94L268.834 246.922H273.098L273.961 249.443H276.564L272.3 238.124H269.728Z" fill="#929292"/>
<path d="M277.547 238.124V249.443H279.895V241.865H279.927L284.671 249.443H287.178V238.124H284.83V245.717H284.798L280.039 238.124H277.547Z" fill="#929292"/>
<defs>
<clipPath id="clip0_44_1254">
<rect width="7.34493" height="7.34493" fill="white" transform="translate(108.008 471.762)"/>
</clipPath>
</defs>
</svg>
